# xmcd
#
# Track frame offsets: 
#        150
#        13235
#        27185
#        43007
#        57125
#        72155
#        90020
#        105422
#        118990
#        133912
#        150715
#        165220
#        184022
#        201317
#        216570
#        235555
#        252885
#        264412
#        279930
#
# Disc length: 4043 seconds
#
# Revision: 11
# Processed by: cddbd v1.5.2PL0 Copyright (c) Steve Scherf et al.
# Submitted via: ExactAudioCopy v1.1
#
DISCID=000fc913
DTITLE=Dolly Parton - The Essential Dolly Parton - Disc 2
DYEAR=2005
DGENRE=Country
TTITLE0=Here You Come Again
TTITLE1=Two Doors Down
TTITLE2=Heartbreaker
TTITLE3=I Really Got The Feeling
TTITLE4=You're The Only One
TTITLE5=Starting Over Again
TTITLE6=Old Flames Can't Hold A Candle To You
TTITLE7=9 To 5
TTITLE8=But You Know I Love You
TTITLE9=Single Women
TTITLE10=Hearbreak Express
TTITLE11=Islands In The Stream (With Kenny Rogers)
TTITLE12=Save The Last Dance For Me (With The Jordanaires)
TTITLE13=Tennessee Homesick Blues
TTITLE14=God Won't Get You
TTITLE15=To Know Him Is To Love Him (With Linda Ronstadt and Emmylou Har
TTITLE15=ris)
TTITLE16=Why'd You Come In Here Lookin' Like That
TTITLE17=Rockin' Years (With Ricky Van Shelton)
TTITLE18=Shine
EXTD=
EXTT0=
EXTT1=
EXTT2=
EXTT3=
EXTT4=
EXTT5=
EXTT6=
EXTT7=
EXTT8=
EXTT9=
EXTT10=
EXTT11=
EXTT12=
EXTT13=
EXTT14=
EXTT15=
EXTT16=
EXTT17=
EXTT18=
PLAYORDER=
